<?xml version="1.0" encoding="UTF-8" standalone="no"?>
<svg
   xmlns:dc="http://purl.org/dc/elements/1.1/"
   xmlns:cc="http://creativecommons.org/ns#"
   xmlns:rdf="http://www.w3.org/1999/02/22-rdf-syntax-ns#"
   xmlns:svg="http://www.w3.org/2000/svg"
   xmlns="http://www.w3.org/2000/svg"
   xmlns:sodipodi="http://sodipodi.sourceforge.net/DTD/sodipodi-0.dtd"
   xmlns:inkscape="http://www.inkscape.org/namespaces/inkscape"
   width="2000"
   height="1000"
   version="1.1"
   id="svg550"
   sodipodi:docname="index.svg"
   inkscape:version="0.92+devel unknown">
  <metadata
     id="metadata556">
    <rdf:RDF>
      <cc:Work
         rdf:about="">
        <dc:format>image/svg+xml</dc:format>
        <dc:type
           rdf:resource="http://purl.org/dc/dcmitype/StillImage" />
      </cc:Work>
    </rdf:RDF>
  </metadata>
  <defs
     id="defs554" />
  <sodipodi:namedview
     pagecolor="#ffffff"
     bordercolor="#666666"
     inkscape:document-rotation="0"
     borderopacity="1"
     objecttolerance="10"
     gridtolerance="10"
     guidetolerance="10"
     inkscape:pageopacity="0"
     inkscape:pageshadow="2"
     inkscape:window-width="1600"
     inkscape:window-height="836"
     id="namedview552"
     showgrid="false"
     inkscape:zoom="0.23193102"
     inkscape:cx="1000"
     inkscape:cy="460.84839"
     inkscape:window-x="0"
     inkscape:window-y="0"
     inkscape:window-maximized="1"
     inkscape:current-layer="g548" />
  <g
     id="g548">
    <path
       d="M-24.958921035816843,-39.17449238437652L-106.710801807368,70.99163168366205L76.15930829149016,51.022456179438976Z"
       fill="#f6f6f6"
       stroke="#f6f6f6"
       id="path2"
       style="fill:none;stroke:#d1c8d9;stroke-opacity:0.37454811" />
    <path
       d="M-24.958921035816843,-39.17449238437652L76.15930829149016,51.022456179438976L21.705548632327982,-42.87770323158301Z"
       fill="#f7f7f7"
       stroke="#f7f7f7"
       id="path4"
       style="fill:none;stroke:#d1c8d9;stroke-opacity:0.37454811" />
    <path
       d="M-24.958921035816843,-39.17449238437652L21.705548632327982,-42.87770323158301L212.75163178550068,-68.52527969141151Z"
       fill="#f8f8f8"
       stroke="#f8f8f8"
       id="path6"
       style="fill:none;stroke:#d1c8d9;stroke-opacity:0.37454811" />
    <path
       d="M21.705548632327982,-42.87770323158301L76.15930829149016,51.022456179438976L212.75163178550068,-68.52527969141151Z"
       fill="#f5f5f5"
       stroke="#f5f5f5"
       id="path8"
       style="fill:none;stroke:#d1c8d9;stroke-opacity:0.37454811" />
    <path
       d="M212.75163178550068,-68.52527969141151L76.15930829149016,51.022456179438976L205.39408126871217,104.59434784775921Z"
       fill="#ededed"
       stroke="#ededed"
       id="path10"
       style="fill:none;stroke:#d1c8d9;stroke-opacity:0.37454811" />
    <path
       d="M212.75163178550068,-68.52527969141151L205.39408126871217,104.59434784775921L334.5929627220831,-31.374940095599555Z"
       fill="#ececec"
       stroke="#ececec"
       id="path12"
       style="fill:none;stroke:#d1c8d9;stroke-opacity:0.37454811" />
    <path
       d="M212.75163178550068,-68.52527969141151L334.5929627220831,-31.374940095599555L474.37634687162176,-28.233277873696466Z"
       fill="#ececec"
       stroke="#ececec"
       id="path14"
       style="fill:none;stroke:#d1c8d9;stroke-opacity:0.37454811" />
    <path
       d="M212.75163178550068,-68.52527969141151L474.37634687162176,-28.233277873696466L722.5336001876118,-30.951810380390796Z"
       fill="#e7e7e7"
       stroke="#e7e7e7"
       id="path16"
       style="fill:none;stroke:#d1c8d9;stroke-opacity:0.37454811" />
    <path
       d="M212.75163178550068,-68.52527969141151L722.5336001876118,-30.951810380390796L1024.4755428245912,-82.63535260357474Z"
       fill="#dfdfdf"
       stroke="#dfdfdf"
       id="path18"
       style="fill:none;stroke:#d1c8d9;stroke-opacity:0.37454811" />
    <path
       d="M334.5929627220831,-31.374940095599555L205.39408126871217,104.59434784775921L357.7069937746773,75.09345404057729Z"
       fill="#e5e5e5"
       stroke="#e5e5e5"
       id="path20"
       style="fill:none;stroke:#d1c8d9;stroke-opacity:0.37454811" />
    <path
       d="M334.5929627220831,-31.374940095599555L357.7069937746773,75.09345404057729L474.37634687162176,-28.233277873696466Z"
       fill="#e5e5e5"
       stroke="#e5e5e5"
       id="path22"
       style="fill:none;stroke:#d1c8d9;stroke-opacity:0.37454811" />
    <path
       d="M474.37634687162176,-28.233277873696466L357.7069937746773,75.09345404057729L573.8500868006076,112.85854070478096Z"
       fill="#dedede"
       stroke="#dedede"
       id="path24"
       style="fill:none;stroke:#d1c8d9;stroke-opacity:0.37454811" />
    <path
       d="M474.37634687162176,-28.233277873696466L573.8500868006076,112.85854070478096L668.9549813616879,70.20501624047829Z"
       fill="#dadada"
       stroke="#dadada"
       id="path26"
       style="fill:none;stroke:#d1c8d9;stroke-opacity:0.37454811" />
    <path
       d="M474.37634687162176,-28.233277873696466L668.9549813616879,70.20501624047829L722.5336001876118,-30.951810380390796Z"
       fill="#dcdcdc"
       stroke="#dcdcdc"
       id="path28"
       style="fill:none;stroke:#d1c8d9;stroke-opacity:0.37454811" />
    <path
       d="M722.5336001876118,-30.951810380390796L668.9549813616879,70.20501624047829L832.5676034093976,120.62233699480382Z"
       fill="#d1d1d1"
       stroke="#d1d1d1"
       id="path30"
       style="fill:none;stroke:#d1c8d9;stroke-opacity:0.37454811" />
    <path
       d="M722.5336001876118,-30.951810380390796L832.5676034093976,120.62233699480382L820.7456364776525,-21.347388203238722Z"
       fill="#d1d1d1"
       stroke="#d1d1d1"
       id="path32"
       style="fill:none;stroke:#d1c8d9;stroke-opacity:0.37454811" />
    <path
       d="M722.5336001876118,-30.951810380390796L820.7456364776525,-21.347388203238722L1024.4755428245912,-82.63535260357474Z"
       fill="#d3d3d3"
       stroke="#d3d3d3"
       id="path34"
       style="fill:none;stroke:#d1c8d9;stroke-opacity:0.37454811" />
    <path
       d="M820.7456364776525,-21.347388203238722L832.5676034093976,120.62233699480382L993.9544327296559,45.08418529966416Z"
       fill="#c9c9c9"
       stroke="#c9c9c9"
       id="path36"
       style="fill:none;stroke:#d1c8d9;stroke-opacity:0.37454811" />
    <path
       d="M820.7456364776525,-21.347388203238722L993.9544327296559,45.08418529966416L1024.4755428245912,-82.63535260357474Z"
       fill="#cccccc"
       stroke="#cccccc"
       id="path38"
       style="fill:none;stroke:#d1c8d9;stroke-opacity:0.37454811" />
    <path
       d="M1024.4755428245912,-82.63535260357474L993.9544327296559,45.08418529966416L1112.0580474339,-16.208167672393728Z"
       fill="#c5c5c5"
       stroke="#c5c5c5"
       id="path40"
       style="fill:none;stroke:#d1c8d9;stroke-opacity:0.37454811" />
    <path
       d="M1024.4755428245912,-82.63535260357474L1112.0580474339,-16.208167672393728L1294.7644306537559,-30.50916786400559Z"
       fill="#c0c0c0"
       stroke="#c0c0c0"
       id="path42"
       style="fill:none;stroke:#d1c8d9;stroke-opacity:0.37454811" />
    <path
       d="M1024.4755428245912,-82.63535260357474L1294.7644306537559,-30.50916786400559L1377.1394099773247,-65.43280859305982Z"
       fill="#b9b9b9"
       stroke="#b9b9b9"
       id="path44"
       style="fill:none;stroke:#d1c8d9;stroke-opacity:0.37454811" />
    <path
       d="M1024.4755428245912,-82.63535260357474L1377.1394099773247,-65.43280859305982L1544.06803709815,-67.47526721701583Z"
       fill="#b3b3b3"
       stroke="#b3b3b3"
       id="path46"
       style="fill:none;stroke:#d1c8d9;stroke-opacity:0.37454811" />
    <path
       d="M1024.4755428245912,-82.63535260357474L1544.06803709815,-67.47526721701583L2229.4130685618074,-89.6137131216871Z"
       fill="#999999"
       stroke="#999999"
       id="path48"
       style="fill:none;stroke:#d1c8d9;stroke-opacity:0.37454811" />
    <path
       d="M1112.0580474339,-16.208167672393728L993.9544327296559,45.08418529966416L1087.8552992324303,127.58431475574349Z"
       fill="#bdbdbd"
       stroke="#bdbdbd"
       id="path50"
       style="fill:none;stroke:#d1c8d9;stroke-opacity:0.37454811" />
    <path
       d="M1112.0580474339,-16.208167672393728L1087.8552992324303,127.58431475574349L1278.665541192645,81.63130192397Z"
       fill="#b5b5b5"
       stroke="#b5b5b5"
       id="path52"
       style="fill:none;stroke:#d1c8d9;stroke-opacity:0.37454811" />
    <path
       d="M1112.0580474339,-16.208167672393728L1278.665541192645,81.63130192397L1294.7644306537559,-30.50916786400559Z"
       fill="#b4b4b4"
       stroke="#b4b4b4"
       id="path54"
       style="fill:none;stroke:#d1c8d9;stroke-opacity:0.37454811" />
    <path
       d="M1294.7644306537559,-30.50916786400559L1278.665541192645,81.63130192397L1372.165164683145,92.6030895977561Z"
       fill="#aaaaaa"
       stroke="#aaaaaa"
       id="path56"
       style="fill:none;stroke:#d1c8d9;stroke-opacity:0.37454811" />
    <path
       d="M1294.7644306537559,-30.50916786400559L1372.165164683145,92.6030895977561L1377.1394099773247,-65.43280859305982Z"
       fill="#acacac"
       stroke="#acacac"
       id="path58"
       style="fill:none;stroke:#d1c8d9;stroke-opacity:0.37454811" />
    <path
       d="M1377.1394099773247,-65.43280859305982L1372.165164683145,92.6030895977561L1544.06803709815,-67.47526721701583Z"
       fill="#a5a5a5"
       stroke="#a5a5a5"
       id="path60"
       style="fill:none;stroke:#d1c8d9;stroke-opacity:0.37454811" />
    <path
       d="M1544.06803709815,-67.47526721701583L1372.165164683145,92.6030895977561L1532.226609282836,117.11267218493353Z"
       fill="#9b9b9b"
       stroke="#9b9b9b"
       id="path62"
       style="fill:none;stroke:#d1c8d9;stroke-opacity:0.37454811" />
    <path
       d="M1544.06803709815,-67.47526721701583L1532.226609282836,117.11267218493353L1709.9021023753662,-62.838749646086654Z"
       fill="#959595"
       stroke="#959595"
       id="path64"
       style="fill:none;stroke:#d1c8d9;stroke-opacity:0.37454811" />
    <path
       d="M1544.06803709815,-67.47526721701583L1709.9021023753662,-62.838749646086654L2229.4130685618074,-89.6137131216871Z"
       fill="#838383"
       stroke="#838383"
       id="path66"
       style="fill:none;stroke:#d1c8d9;stroke-opacity:0.37454811" />
    <path
       d="M1709.9021023753662,-62.838749646086654L1532.226609282836,117.11267218493353L1780.2579262464803,45.136046351455775Z"
       fill="#8b8b8b"
       stroke="#8b8b8b"
       id="path68"
       style="fill:none;stroke:#d1c8d9;stroke-opacity:0.37454811" />
    <path
       d="M1709.9021023753662,-62.838749646086654L1780.2579262464803,45.136046351455775L1883.037565558365,-17.556718954935604Z"
       fill="#848484"
       stroke="#848484"
       id="path70"
       style="fill:none;stroke:#d1c8d9;stroke-opacity:0.37454811" />
    <path
       d="M1709.9021023753662,-62.838749646086654L1883.037565558365,-17.556718954935604L2049.21334210825,-32.69831163473522Z"
       fill="#7f7f7f"
       stroke="#7f7f7f"
       id="path72"
       style="fill:none;stroke:#d1c8d9;stroke-opacity:0.37454811" />
    <path
       d="M1709.9021023753662,-62.838749646086654L2049.21334210825,-32.69831163473522L2229.4130685618074,-89.6137131216871Z"
       fill="#808080"
       stroke="#808080"
       id="path74"
       style="fill:none;stroke:#d1c8d9;stroke-opacity:0.37454811" />
    <path
       d="M1883.037565558365,-17.556718954935604L1780.2579262464803,45.136046351455775L1903.8767736996633,33.45722266617603Z"
       fill="#7b7b7b"
       stroke="#7b7b7b"
       id="path76"
       style="fill:none;stroke:#d1c8d9;stroke-opacity:0.37454811" />
    <path
       d="M1883.037565558365,-17.556718954935604L1903.8767736996633,33.45722266617603L2049.21334210825,-32.69831163473522Z"
       fill="#7c7c7c"
       stroke="#7c7c7c"
       id="path78"
       style="fill:none;stroke:#d1c8d9;stroke-opacity:0.37454811" />
    <path
       d="M2049.21334210825,-32.69831163473522L1903.8767736996633,33.45722266617603L2038.5139445270388,57.630428931883046Z"
       fill="#7a7a7a"
       stroke="#7a7a7a"
       id="path80"
       style="fill:none;stroke:#d1c8d9;stroke-opacity:0.37454811" />
    <path
       d="M2049.21334210825,-32.69831163473522L2038.5139445270388,57.630428931883046L2231.4788481010983,90.34929271271035Z"
       fill="#787878"
       stroke="#787878"
       id="path82"
       style="fill:none;stroke:#d1c8d9;stroke-opacity:0.37454811" />
    <path
       d="M2049.21334210825,-32.69831163473522L2231.4788481010983,90.34929271271035L2229.4130685618074,-89.6137131216871Z"
       fill="#7d7d7d"
       stroke="#7d7d7d"
       id="path84"
       style="fill:none;stroke:#d1c8d9;stroke-opacity:0.37454811" />
    <path
       d="M-106.710801807368,70.99163168366205L-105.61686997531935,259.2182868050244L58.72238400487457,220.0762432726736Z"
       fill="#e9e9e9"
       stroke="#e9e9e9"
       id="path86"
       style="fill:none;stroke:#d1c8d9;stroke-opacity:0.37454811" />
    <path
       d="M-106.710801807368,70.99163168366205L58.72238400487457,220.0762432726736L76.15930829149016,51.022456179438976Z"
       fill="#ececec"
       stroke="#ececec"
       id="path88"
       style="fill:none;stroke:#d1c8d9;stroke-opacity:0.37454811" />
    <path
       d="M76.15930829149016,51.022456179438976L58.72238400487457,220.0762432726736L205.39408126871217,104.59434784775921Z"
       fill="#e7e7e7"
       stroke="#e7e7e7"
       id="path90"
       style="fill:none;stroke:#d1c8d9;stroke-opacity:0.37454811" />
    <path
       d="M205.39408126871217,104.59434784775921L58.72238400487457,220.0762432726736L205.2639517995291,214.30468225165134Z"
       fill="#e0e0e0"
       stroke="#e0e0e0"
       id="path92"
       style="fill:none;stroke:#d1c8d9;stroke-opacity:0.37454811" />
    <path
       d="M205.39408126871217,104.59434784775921L205.2639517995291,214.30468225165134L357.7069937746773,75.09345404057729Z"
       fill="#e0e0e0"
       stroke="#e0e0e0"
       id="path94"
       style="fill:none;stroke:#d1c8d9;stroke-opacity:0.37454811" />
    <path
       d="M357.7069937746773,75.09345404057729L205.2639517995291,214.30468225165134L415.7446349987786,228.57705198699534Z"
       fill="#d9d9d9"
       stroke="#d9d9d9"
       id="path96"
       style="fill:none;stroke:#d1c8d9;stroke-opacity:0.37454811" />
    <path
       d="M357.7069937746773,75.09345404057729L415.7446349987786,228.57705198699534L573.8500868006076,112.85854070478096Z"
       fill="#d7d7d7"
       stroke="#d7d7d7"
       id="path98"
       style="fill:none;stroke:#d1c8d9;stroke-opacity:0.37454811" />
    <path
       d="M573.8500868006076,112.85854070478096L415.7446349987786,228.57705198699534L504.09125646693064,265.7427913080742Z"
       fill="#cfcfcf"
       stroke="#cfcfcf"
       id="path100"
       style="fill:none;stroke:#d1c8d9;stroke-opacity:0.37454811" />
    <path
       d="M573.8500868006076,112.85854070478096L504.09125646693064,265.7427913080742L691.113165097381,166.289155619481Z"
       fill="#cdcdcd"
       stroke="#cdcdcd"
       id="path102"
       style="fill:none;stroke:#d1c8d9;stroke-opacity:0.37454811" />
    <path
       d="M573.8500868006076,112.85854070478096L691.113165097381,166.289155619481L668.9549813616879,70.20501624047829Z"
       fill="#d1d1d1"
       stroke="#d1d1d1"
       id="path104"
       style="fill:none;stroke:#d1c8d9;stroke-opacity:0.37454811" />
    <path
       d="M668.9549813616879,70.20501624047829L691.113165097381,166.289155619481L832.5676034093976,120.62233699480382Z"
       fill="#cccccc"
       stroke="#cccccc"
       id="path106"
       style="fill:none;stroke:#d1c8d9;stroke-opacity:0.37454811" />
    <path
       d="M832.5676034093976,120.62233699480382L691.113165097381,166.289155619481L825.1930338300193,281.2054860910473Z"
       fill="#c2c2c2"
       stroke="#c2c2c2"
       id="path108"
       style="fill:none;stroke:#d1c8d9;stroke-opacity:0.37454811" />
    <path
       d="M832.5676034093976,120.62233699480382L825.1930338300193,281.2054860910473L964.8019188168541,188.6003540618964Z"
       fill="#bdbdbd"
       stroke="#bdbdbd"
       id="path110"
       style="fill:none;stroke:#d1c8d9;stroke-opacity:0.37454811" />
    <path
       d="M832.5676034093976,120.62233699480382L964.8019188168541,188.6003540618964L993.9544327296559,45.08418529966416Z"
       fill="#c0c0c0"
       stroke="#c0c0c0"
       id="path112"
       style="fill:none;stroke:#d1c8d9;stroke-opacity:0.37454811" />
    <path
       d="M993.9544327296559,45.08418529966416L964.8019188168541,188.6003540618964L1087.8552992324303,127.58431475574349Z"
       fill="#bbbbbb"
       stroke="#bbbbbb"
       id="path114"
       style="fill:none;stroke:#d1c8d9;stroke-opacity:0.37454811" />
    <path
       d="M1087.8552992324303,127.58431475574349L964.8019188168541,188.6003540618964L1093.859214599813,209.12851357572418Z"
       fill="#b4b4b4"
       stroke="#b4b4b4"
       id="path116"
       style="fill:none;stroke:#d1c8d9;stroke-opacity:0.37454811" />
    <path
       d="M1087.8552992324303,127.58431475574349L1093.859214599813,209.12851357572418L1278.665541192645,81.63130192397Z"
       fill="#afafaf"
       stroke="#afafaf"
       id="path118"
       style="fill:none;stroke:#d1c8d9;stroke-opacity:0.37454811" />
    <path
       d="M1278.665541192645,81.63130192397L1093.859214599813,209.12851357572418L1270.5603215583017,259.9606358954022Z"
       fill="#a6a6a6"
       stroke="#a6a6a6"
       id="path120"
       style="fill:none;stroke:#d1c8d9;stroke-opacity:0.37454811" />
    <path
       d="M1278.665541192645,81.63130192397L1270.5603215583017,259.9606358954022L1407.4516106702122,185.7755923072289Z"
       fill="#9e9e9e"
       stroke="#9e9e9e"
       id="path122"
       style="fill:none;stroke:#d1c8d9;stroke-opacity:0.37454811" />
    <path
       d="M1278.665541192645,81.63130192397L1407.4516106702122,185.7755923072289L1372.165164683145,92.6030895977561Z"
       fill="#a0a0a0"
       stroke="#a0a0a0"
       id="path124"
       style="fill:none;stroke:#d1c8d9;stroke-opacity:0.37454811" />
    <path
       d="M1372.165164683145,92.6030895977561L1407.4516106702122,185.7755923072289L1532.226609282836,117.11267218493353Z"
       fill="#989898"
       stroke="#989898"
       id="path126"
       style="fill:none;stroke:#d1c8d9;stroke-opacity:0.37454811" />
    <path
       d="M1532.226609282836,117.11267218493353L1407.4516106702122,185.7755923072289L1544.7698005437194,274.4950766871641Z"
       fill="#8d8d8d"
       stroke="#8d8d8d"
       id="path128"
       style="fill:none;stroke:#d1c8d9;stroke-opacity:0.37454811" />
    <path
       d="M1532.226609282836,117.11267218493353L1544.7698005437194,274.4950766871641L1779.2062589156783,215.97534202534464Z"
       fill="#818181"
       stroke="#818181"
       id="path130"
       style="fill:none;stroke:#d1c8d9;stroke-opacity:0.37454811" />
    <path
       d="M1532.226609282836,117.11267218493353L1779.2062589156783,215.97534202534464L1780.2579262464803,45.136046351455775Z"
       fill="#808080"
       stroke="#808080"
       id="path132"
       style="fill:none;stroke:#d1c8d9;stroke-opacity:0.37454811" />
    <path
       d="M1780.2579262464803,45.136046351455775L1779.2062589156783,215.97534202534464L1859.039099761157,224.39439787577726Z"
       fill="#737373"
       stroke="#737373"
       id="path134"
       style="fill:none;stroke:#d1c8d9;stroke-opacity:0.37454811" />
    <path
       d="M1780.2579262464803,45.136046351455775L1859.039099761157,224.39439787577726L1903.8767736996633,33.45722266617603Z"
       fill="#747474"
       stroke="#747474"
       id="path136"
       style="fill:none;stroke:#d1c8d9;stroke-opacity:0.37454811" />
    <path
       d="M1903.8767736996633,33.45722266617603L1859.039099761157,224.39439787577726L2038.5139445270388,57.630428931883046Z"
       fill="#727272"
       stroke="#727272"
       id="path138"
       style="fill:none;stroke:#d1c8d9;stroke-opacity:0.37454811" />
    <path
       d="M2038.5139445270388,57.630428931883046L1859.039099761157,224.39439787577726L2077.569418839763,191.20766860018765Z"
       fill="#6e6e6e"
       stroke="#6e6e6e"
       id="path140"
       style="fill:none;stroke:#d1c8d9;stroke-opacity:0.37454811" />
    <path
       d="M2038.5139445270388,57.630428931883046L2077.569418839763,191.20766860018765L2127.1483886013816,176.7620152209358Z"
       fill="#6f6f6f"
       stroke="#6f6f6f"
       id="path142"
       style="fill:none;stroke:#d1c8d9;stroke-opacity:0.37454811" />
    <path
       d="M2038.5139445270388,57.630428931883046L2127.1483886013816,176.7620152209358L2231.4788481010983,90.34929271271035Z"
       fill="#727272"
       stroke="#727272"
       id="path144"
       style="fill:none;stroke:#d1c8d9;stroke-opacity:0.37454811" />
    <path
       d="M2231.4788481010983,90.34929271271035L2127.1483886013816,176.7620152209358L2149.4350823821937,341.94519302749717Z"
       fill="#6a6a6a"
       stroke="#6a6a6a"
       id="path146"
       style="fill:none;stroke:#d1c8d9;stroke-opacity:0.37454811" />
    <path
       d="M2231.4788481010983,90.34929271271035L2149.4350823821937,341.94519302749717L2194.4843678876946,628.7260407841479Z"
       fill="#5c5c5c"
       stroke="#5c5c5c"
       id="path148"
       style="fill:none;stroke:#d1c8d9;stroke-opacity:0.37454811" />
    <path
       d="M2231.4788481010983,90.34929271271035L2194.4843678876946,628.7260407841479L2212.389222653648,783.3655363140241Z"
       fill="#4b4b4b"
       stroke="#4b4b4b"
       id="path150"
       style="fill:none;stroke:#d1c8d9;stroke-opacity:0.37454811" />
    <path
       d="M-105.61686997531935,259.2182868050244L-52.85377904337733,1183.1075818523445L-56.96028267517684,822.944962254477Z"
       fill="#a0a0a0"
       stroke="#a0a0a0"
       id="path152"
       style="fill:none;stroke:#d1c8d9;stroke-opacity:0.37454811" />
    <path
       d="M-105.61686997531935,259.2182868050244L-56.96028267517684,822.944962254477L-88.61624189070844,385.8209197608917Z"
       fill="#cccccc"
       stroke="#cccccc"
       id="path154"
       style="fill:none;stroke:#d1c8d9;stroke-opacity:0.37454811" />
    <path
       d="M-105.61686997531935,259.2182868050244L-88.61624189070844,385.8209197608917L58.72238400487457,220.0762432726736Z"
       fill="#e0e0e0"
       stroke="#e0e0e0"
       id="path156"
       style="fill:none;stroke:#d1c8d9;stroke-opacity:0.37454811" />
    <path
       d="M58.72238400487457,220.0762432726736L-88.61624189070844,385.8209197608917L110.2608239432299,355.14236054290524Z"
       fill="#dadada"
       stroke="#dadada"
       id="path158"
       style="fill:none;stroke:#d1c8d9;stroke-opacity:0.37454811" />
    <path
       d="M58.72238400487457,220.0762432726736L110.2608239432299,355.14236054290524L205.2639517995291,214.30468225165134Z"
       fill="#dbdbdb"
       stroke="#dbdbdb"
       id="path160"
       style="fill:none;stroke:#d1c8d9;stroke-opacity:0.37454811" />
    <path
       d="M205.2639517995291,214.30468225165134L110.2608239432299,355.14236054290524L260.7618781074452,327.8916994323061Z"
       fill="#d5d5d5"
       stroke="#d5d5d5"
       id="path162"
       style="fill:none;stroke:#d1c8d9;stroke-opacity:0.37454811" />
    <path
       d="M205.2639517995291,214.30468225165134L260.7618781074452,327.8916994323061L415.7446349987786,228.57705198699534Z"
       fill="#d4d4d4"
       stroke="#d4d4d4"
       id="path164"
       style="fill:none;stroke:#d1c8d9;stroke-opacity:0.37454811" />
    <path
       d="M415.7446349987786,228.57705198699534L260.7618781074452,327.8916994323061L408.1531350222537,391.45876250597786Z"
       fill="#cccccc"
       stroke="#cccccc"
       id="path166"
       style="fill:none;stroke:#d1c8d9;stroke-opacity:0.37454811" />
    <path
       d="M415.7446349987786,228.57705198699534L408.1531350222537,391.45876250597786L476.7024946047826,382.3435019775254Z"
       fill="#c7c7c7"
       stroke="#c7c7c7"
       id="path168"
       style="fill:none;stroke:#d1c8d9;stroke-opacity:0.37454811" />
    <path
       d="M415.7446349987786,228.57705198699534L476.7024946047826,382.3435019775254L504.09125646693064,265.7427913080742Z"
       fill="#c9c9c9"
       stroke="#c9c9c9"
       id="path170"
       style="fill:none;stroke:#d1c8d9;stroke-opacity:0.37454811" />
    <path
       d="M504.09125646693064,265.7427913080742L476.7024946047826,382.3435019775254L727.2483267045136,362.2222805130478Z"
       fill="#c1c1c1"
       stroke="#c1c1c1"
       id="path172"
       style="fill:none;stroke:#d1c8d9;stroke-opacity:0.37454811" />
    <path
       d="M504.09125646693064,265.7427913080742L727.2483267045136,362.2222805130478L691.113165097381,166.289155619481Z"
       fill="#c4c4c4"
       stroke="#c4c4c4"
       id="path174"
       style="fill:none;stroke:#d1c8d9;stroke-opacity:0.37454811" />
    <path
       d="M691.113165097381,166.289155619481L727.2483267045136,362.2222805130478L825.1930338300193,281.2054860910473Z"
       fill="#bebebe"
       stroke="#bebebe"
       id="path176"
       style="fill:none;stroke:#d1c8d9;stroke-opacity:0.37454811" />
    <path
       d="M825.1930338300193,281.2054860910473L727.2483267045136,362.2222805130478L849.3409351913065,409.1429609620153Z"
       fill="#b3b3b3"
       stroke="#b3b3b3"
       id="path178"
       style="fill:none;stroke:#d1c8d9;stroke-opacity:0.37454811" />
    <path
       d="M825.1930338300193,281.2054860910473L849.3409351913065,409.1429609620153L962.2304770080212,426.9666934785635Z"
       fill="#acacac"
       stroke="#acacac"
       id="path180"
       style="fill:none;stroke:#d1c8d9;stroke-opacity:0.37454811" />
    <path
       d="M825.1930338300193,281.2054860910473L962.2304770080212,426.9666934785635L964.8019188168541,188.6003540618964Z"
       fill="#b2b2b2"
       stroke="#b2b2b2"
       id="path182"
       style="fill:none;stroke:#d1c8d9;stroke-opacity:0.37454811" />
    <path
       d="M964.8019188168541,188.6003540618964L962.2304770080212,426.9666934785635L1093.859214599813,209.12851357572418Z"
       fill="#aeaeae"
       stroke="#aeaeae"
       id="path184"
       style="fill:none;stroke:#d1c8d9;stroke-opacity:0.37454811" />
    <path
       d="M1093.859214599813,209.12851357572418L962.2304770080212,426.9666934785635L1173.9016377025182,419.126820973807Z"
       fill="#a2a2a2"
       stroke="#a2a2a2"
       id="path186"
       style="fill:none;stroke:#d1c8d9;stroke-opacity:0.37454811" />
    <path
       d="M1093.859214599813,209.12851357572418L1173.9016377025182,419.126820973807L1270.5603215583017,259.9606358954022Z"
       fill="#9f9f9f"
       stroke="#9f9f9f"
       id="path188"
       style="fill:none;stroke:#d1c8d9;stroke-opacity:0.37454811" />
    <path
       d="M1270.5603215583017,259.9606358954022L1173.9016377025182,419.126820973807L1299.8322592553816,342.34020452736894Z"
       fill="#969696"
       stroke="#969696"
       id="path190"
       style="fill:none;stroke:#d1c8d9;stroke-opacity:0.37454811" />
    <path
       d="M1270.5603215583017,259.9606358954022L1299.8322592553816,342.34020452736894L1407.4516106702122,185.7755923072289Z"
       fill="#979797"
       stroke="#979797"
       id="path192"
       style="fill:none;stroke:#d1c8d9;stroke-opacity:0.37454811" />
    <path
       d="M1407.4516106702122,185.7755923072289L1299.8322592553816,342.34020452736894L1396.9872416934975,396.8084290008588Z"
       fill="#8f8f8f"
       stroke="#8f8f8f"
       id="path194"
       style="fill:none;stroke:#d1c8d9;stroke-opacity:0.37454811" />
    <path
       d="M1407.4516106702122,185.7755923072289L1396.9872416934975,396.8084290008588L1544.7698005437194,274.4950766871641Z"
       fill="#898989"
       stroke="#898989"
       id="path196"
       style="fill:none;stroke:#d1c8d9;stroke-opacity:0.37454811" />
    <path
       d="M1544.7698005437194,274.4950766871641L1396.9872416934975,396.8084290008588L1608.6509206658768,422.77620270074345Z"
       fill="#7c7c7c"
       stroke="#7c7c7c"
       id="path198"
       style="fill:none;stroke:#d1c8d9;stroke-opacity:0.37454811" />
    <path
       d="M1544.7698005437194,274.4950766871641L1608.6509206658768,422.77620270074345L1764.3047040854372,382.8486561728769Z"
       fill="#717171"
       stroke="#717171"
       id="path200"
       style="fill:none;stroke:#d1c8d9;stroke-opacity:0.37454811" />
    <path
       d="M1544.7698005437194,274.4950766871641L1764.3047040854372,382.8486561728769L1779.2062589156783,215.97534202534464Z"
       fill="#727272"
       stroke="#727272"
       id="path202"
       style="fill:none;stroke:#d1c8d9;stroke-opacity:0.37454811" />
    <path
       d="M1779.2062589156783,215.97534202534464L1764.3047040854372,382.8486561728769L1859.039099761157,224.39439787577726Z"
       fill="#6a6a6a"
       stroke="#6a6a6a"
       id="path204"
       style="fill:none;stroke:#d1c8d9;stroke-opacity:0.37454811" />
    <path
       d="M1859.039099761157,224.39439787577726L1764.3047040854372,382.8486561728769L1906.410691880663,358.3915227897824Z"
       fill="#626262"
       stroke="#626262"
       id="path206"
       style="fill:none;stroke:#d1c8d9;stroke-opacity:0.37454811" />
    <path
       d="M1859.039099761157,224.39439787577726L1906.410691880663,358.3915227897824L2077.569418839763,191.20766860018765Z"
       fill="#656565"
       stroke="#656565"
       id="path208"
       style="fill:none;stroke:#d1c8d9;stroke-opacity:0.37454811" />
    <path
       d="M2077.569418839763,191.20766860018765L1906.410691880663,358.3915227897824L1978.344558025366,380.4595267042672Z"
       fill="#616161"
       stroke="#616161"
       id="path210"
       style="fill:none;stroke:#d1c8d9;stroke-opacity:0.37454811" />
    <path
       d="M2077.569418839763,191.20766860018765L1978.344558025366,380.4595267042672L2149.4350823821937,341.94519302749717Z"
       fill="#616161"
       stroke="#616161"
       id="path212"
       style="fill:none;stroke:#d1c8d9;stroke-opacity:0.37454811" />
    <path
       d="M2077.569418839763,191.20766860018765L2149.4350823821937,341.94519302749717L2127.1483886013816,176.7620152209358Z"
       fill="#676767"
       stroke="#676767"
       id="path214"
       style="fill:none;stroke:#d1c8d9;stroke-opacity:0.37454811" />
    <path
       d="M-88.61624189070844,385.8209197608917L-56.96028267517684,822.944962254477L-57.16759634843723,717.9598086349099Z"
       fill="#b4b4b4"
       stroke="#b4b4b4"
       id="path216"
       style="fill:none;stroke:#d1c8d9;stroke-opacity:0.37454811" />
    <path
       d="M-88.61624189070844,385.8209197608917L-57.16759634843723,717.9598086349099L-51.304545654318346,471.1981785980921Z"
       fill="#c6c6c6"
       stroke="#c6c6c6"
       id="path218"
       style="fill:none;stroke:#d1c8d9;stroke-opacity:0.37454811" />
    <path
       d="M-88.61624189070844,385.8209197608917L-51.304545654318346,471.1981785980921L34.68598254526867,481.3234608519059Z"
       fill="#cfcfcf"
       stroke="#cfcfcf"
       id="path220"
       style="fill:none;stroke:#d1c8d9;stroke-opacity:0.37454811" />
    <path
       d="M-88.61624189070844,385.8209197608917L34.68598254526867,481.3234608519059L110.2608239432299,355.14236054290524Z"
       fill="#d1d1d1"
       stroke="#d1d1d1"
       id="path222"
       style="fill:none;stroke:#d1c8d9;stroke-opacity:0.37454811" />
    <path
       d="M110.2608239432299,355.14236054290524L34.68598254526867,481.3234608519059L212.53575185257597,570.4813977093064Z"
       fill="#c5c5c5"
       stroke="#c5c5c5"
       id="path224"
       style="fill:none;stroke:#d1c8d9;stroke-opacity:0.37454811" />
    <path
       d="M110.2608239432299,355.14236054290524L212.53575185257597,570.4813977093064L260.7618781074452,327.8916994323061Z"
       fill="#c7c7c7"
       stroke="#c7c7c7"
       id="path226"
       style="fill:none;stroke:#d1c8d9;stroke-opacity:0.37454811" />
    <path
       d="M260.7618781074452,327.8916994323061L212.53575185257597,570.4813977093064L353.9589911714765,534.188901036671Z"
       fill="#bdbdbd"
       stroke="#bdbdbd"
       id="path228"
       style="fill:none;stroke:#d1c8d9;stroke-opacity:0.37454811" />
    <path
       d="M260.7618781074452,327.8916994323061L353.9589911714765,534.188901036671L408.1531350222537,391.45876250597786Z"
       fill="#c1c1c1"
       stroke="#c1c1c1"
       id="path230"
       style="fill:none;stroke:#d1c8d9;stroke-opacity:0.37454811" />
    <path
       d="M408.1531350222537,391.45876250597786L353.9589911714765,534.188901036671L539.5409176518008,501.058236522508Z"
       fill="#b7b7b7"
       stroke="#b7b7b7"
       id="path232"
       style="fill:none;stroke:#d1c8d9;stroke-opacity:0.37454811" />
    <path
       d="M408.1531350222537,391.45876250597786L539.5409176518008,501.058236522508L476.7024946047826,382.3435019775254Z"
       fill="#bbbbbb"
       stroke="#bbbbbb"
       id="path234"
       style="fill:none;stroke:#d1c8d9;stroke-opacity:0.37454811" />
    <path
       d="M476.7024946047826,382.3435019775254L539.5409176518008,501.058236522508L727.2483267045136,362.2222805130478Z"
       fill="#b7b7b7"
       stroke="#b7b7b7"
       id="path236"
       style="fill:none;stroke:#d1c8d9;stroke-opacity:0.37454811" />
    <path
       d="M727.2483267045136,362.2222805130478L539.5409176518008,501.058236522508L705.968162304498,466.85647826787897Z"
       fill="#b1b1b1"
       stroke="#b1b1b1"
       id="path238"
       style="fill:none;stroke:#d1c8d9;stroke-opacity:0.37454811" />
    <path
       d="M727.2483267045136,362.2222805130478L705.968162304498,466.85647826787897L849.3409351913065,409.1429609620153Z"
       fill="#aeaeae"
       stroke="#aeaeae"
       id="path240"
       style="fill:none;stroke:#d1c8d9;stroke-opacity:0.37454811" />
    <path
       d="M849.3409351913065,409.1429609620153L705.968162304498,466.85647826787897L859.1678343921114,470.16125345606156Z"
       fill="#a8a8a8"
       stroke="#a8a8a8"
       id="path242"
       style="fill:none;stroke:#d1c8d9;stroke-opacity:0.37454811" />
    <path
       d="M849.3409351913065,409.1429609620153L859.1678343921114,470.16125345606156L962.2304770080212,426.9666934785635Z"
       fill="#a4a4a4"
       stroke="#a4a4a4"
       id="path244"
       style="fill:none;stroke:#d1c8d9;stroke-opacity:0.37454811" />
    <path
       d="M962.2304770080212,426.9666934785635L859.1678343921114,470.16125345606156L978.0016811157069,548.1297006582176Z"
       fill="#9c9c9c"
       stroke="#9c9c9c"
       id="path246"
       style="fill:none;stroke:#d1c8d9;stroke-opacity:0.37454811" />
    <path
       d="M962.2304770080212,426.9666934785635L978.0016811157069,548.1297006582176L1179.0713931781047,469.2099026995109Z"
       fill="#959595"
       stroke="#959595"
       id="path248"
       style="fill:none;stroke:#d1c8d9;stroke-opacity:0.37454811" />
    <path
       d="M962.2304770080212,426.9666934785635L1179.0713931781047,469.2099026995109L1173.9016377025182,419.126820973807Z"
       fill="#959595"
       stroke="#959595"
       id="path250"
       style="fill:none;stroke:#d1c8d9;stroke-opacity:0.37454811" />
    <path
       d="M1173.9016377025182,419.126820973807L1179.0713931781047,469.2099026995109L1312.4165268800132,500.2011716215684Z"
       fill="#8a8a8a"
       stroke="#8a8a8a"
       id="path252"
       style="fill:none;stroke:#d1c8d9;stroke-opacity:0.37454811" />
    <path
       d="M1173.9016377025182,419.126820973807L1312.4165268800132,500.2011716215684L1299.8322592553816,342.34020452736894Z"
       fill="#8c8c8c"
       stroke="#8c8c8c"
       id="path254"
       style="fill:none;stroke:#d1c8d9;stroke-opacity:0.37454811" />
    <path
       d="M1299.8322592553816,342.34020452736894L1312.4165268800132,500.2011716215684L1396.9872416934975,396.8084290008588Z"
       fill="#868686"
       stroke="#868686"
       id="path256"
       style="fill:none;stroke:#d1c8d9;stroke-opacity:0.37454811" />
    <path
       d="M1396.9872416934975,396.8084290008588L1312.4165268800132,500.2011716215684L1387.3851974369013,482.64302792224464Z"
       fill="#7e7e7e"
       stroke="#7e7e7e"
       id="path258"
       style="fill:none;stroke:#d1c8d9;stroke-opacity:0.37454811" />
    <path
       d="M1396.9872416934975,396.8084290008588L1387.3851974369013,482.64302792224464L1608.6509206658768,422.77620270074345Z"
       fill="#787878"
       stroke="#787878"
       id="path260"
       style="fill:none;stroke:#d1c8d9;stroke-opacity:0.37454811" />
    <path
       d="M1608.6509206658768,422.77620270074345L1387.3851974369013,482.64302792224464L1596.9880695951435,537.641375363002Z"
       fill="#6c6c6c"
       stroke="#6c6c6c"
       id="path262"
       style="fill:none;stroke:#d1c8d9;stroke-opacity:0.37454811" />
    <path
       d="M1608.6509206658768,422.77620270074345L1596.9880695951435,537.641375363002L1713.1454717107288,478.1202554004986Z"
       fill="#636363"
       stroke="#636363"
       id="path264"
       style="fill:none;stroke:#d1c8d9;stroke-opacity:0.37454811" />
    <path
       d="M1608.6509206658768,422.77620270074345L1713.1454717107288,478.1202554004986L1764.3047040854372,382.8486561728769Z"
       fill="#646464"
       stroke="#646464"
       id="path266"
       style="fill:none;stroke:#d1c8d9;stroke-opacity:0.37454811" />
    <path
       d="M1764.3047040854372,382.8486561728769L1713.1454717107288,478.1202554004986L1850.3215243563257,564.5531863604185Z"
       fill="#575757"
       stroke="#575757"
       id="path268"
       style="fill:none;stroke:#d1c8d9;stroke-opacity:0.37454811" />
    <path
       d="M1764.3047040854372,382.8486561728769L1850.3215243563257,564.5531863604185L1906.410691880663,358.3915227897824Z"
       fill="#555555"
       stroke="#555555"
       id="path270"
       style="fill:none;stroke:#d1c8d9;stroke-opacity:0.37454811" />
    <path
       d="M1906.410691880663,358.3915227897824L1850.3215243563257,564.5531863604185L1971.7931257412688,485.3431669619394Z"
       fill="#4f4f4f"
       stroke="#4f4f4f"
       id="path272"
       style="fill:none;stroke:#d1c8d9;stroke-opacity:0.37454811" />
    <path
       d="M1906.410691880663,358.3915227897824L1971.7931257412688,485.3431669619394L1978.344558025366,380.4595267042672Z"
       fill="#565656"
       stroke="#565656"
       id="path274"
       style="fill:none;stroke:#d1c8d9;stroke-opacity:0.37454811" />
    <path
       d="M1978.344558025366,380.4595267042672L1971.7931257412688,485.3431669619394L2120.389837341119,526.5235192692498Z"
       fill="#4f4f4f"
       stroke="#4f4f4f"
       id="path276"
       style="fill:none;stroke:#d1c8d9;stroke-opacity:0.37454811" />
    <path
       d="M1978.344558025366,380.4595267042672L2120.389837341119,526.5235192692498L2149.4350823821937,341.94519302749717Z"
       fill="#555555"
       stroke="#555555"
       id="path278"
       style="fill:none;stroke:#d1c8d9;stroke-opacity:0.37454811" />
    <path
       d="M2149.4350823821937,341.94519302749717L2120.389837341119,526.5235192692498L2194.4843678876946,628.7260407841479Z"
       fill="#4b4b4b"
       stroke="#4b4b4b"
       id="path280"
       style="fill:none;stroke:#d1c8d9;stroke-opacity:0.37454811" />
    <path
       d="M-51.304545654318346,471.1981785980921L-57.16759634843723,717.9598086349099L34.68598254526867,481.3234608519059Z"
       fill="#bfbfbf"
       stroke="#bfbfbf"
       id="path282"
       style="fill:none;stroke:#d1c8d9;stroke-opacity:0.37454811" />
    <path
       d="M34.68598254526867,481.3234608519059L-57.16759634843723,717.9598086349099L83.83793404622608,727.6778502524322Z"
       fill="#b0b0b0"
       stroke="#b0b0b0"
       id="path284"
       style="fill:none;stroke:#d1c8d9;stroke-opacity:0.37454811" />
    <path
       d="M34.68598254526867,481.3234608519059L83.83793404622608,727.6778502524322L165.73728671942126,666.8011828313599Z"
       fill="#afafaf"
       stroke="#afafaf"
       id="path286"
       style="fill:none;stroke:#d1c8d9;stroke-opacity:0.37454811" />
    <path
       d="M34.68598254526867,481.3234608519059L165.73728671942126,666.8011828313599L212.53575185257597,570.4813977093064Z"
       fill="#b6b6b6"
       stroke="#b6b6b6"
       id="path288"
       style="fill:none;stroke:#d1c8d9;stroke-opacity:0.37454811" />
    <path
       d="M212.53575185257597,570.4813977093064L165.73728671942126,666.8011828313599L372.66676352144884,728.7517071559673Z"
       fill="#a3a3a3"
       stroke="#a3a3a3"
       id="path290"
       style="fill:none;stroke:#d1c8d9;stroke-opacity:0.37454811" />
    <path
       d="M212.53575185257597,570.4813977093064L372.66676352144884,728.7517071559673L353.9589911714765,534.188901036671Z"
       fill="#a8a8a8"
       stroke="#a8a8a8"
       id="path292"
       style="fill:none;stroke:#d1c8d9;stroke-opacity:0.37454811" />
    <path
       d="M353.9589911714765,534.188901036671L372.66676352144884,728.7517071559673L542.4315340426363,645.4036083285639Z"
       fill="#9f9f9f"
       stroke="#9f9f9f"
       id="path294"
       style="fill:none;stroke:#d1c8d9;stroke-opacity:0.37454811" />
    <path
       d="M353.9589911714765,534.188901036671L542.4315340426363,645.4036083285639L539.5409176518008,501.058236522508Z"
       fill="#a9a9a9"
       stroke="#a9a9a9"
       id="path296"
       style="fill:none;stroke:#d1c8d9;stroke-opacity:0.37454811" />
    <path
       d="M539.5409176518008,501.058236522508L542.4315340426363,645.4036083285639L705.968162304498,466.85647826787897Z"
       fill="#a7a7a7"
       stroke="#a7a7a7"
       id="path298"
       style="fill:none;stroke:#d1c8d9;stroke-opacity:0.37454811" />
    <path
       d="M705.968162304498,466.85647826787897L542.4315340426363,645.4036083285639L622.4206764167042,694.7269363409931Z"
       fill="#9c9c9c"
       stroke="#9c9c9c"
       id="path300"
       style="fill:none;stroke:#d1c8d9;stroke-opacity:0.37454811" />
    <path
       d="M705.968162304498,466.85647826787897L622.4206764167042,694.7269363409931L870.2455597713204,722.3115352071144Z"
       fill="#929292"
       stroke="#929292"
       id="path302"
       style="fill:none;stroke:#d1c8d9;stroke-opacity:0.37454811" />
    <path
       d="M705.968162304498,466.85647826787897L870.2455597713204,722.3115352071144L859.1678343921114,470.16125345606156Z"
       fill="#999999"
       stroke="#999999"
       id="path304"
       style="fill:none;stroke:#d1c8d9;stroke-opacity:0.37454811" />
    <path
       d="M859.1678343921114,470.16125345606156L870.2455597713204,722.3115352071144L931.603831243218,675.7329842655066Z"
       fill="#8a8a8a"
       stroke="#8a8a8a"
       id="path306"
       style="fill:none;stroke:#d1c8d9;stroke-opacity:0.37454811" />
    <path
       d="M859.1678343921114,470.16125345606156L931.603831243218,675.7329842655066L978.0016811157069,548.1297006582176Z"
       fill="#919191"
       stroke="#919191"
       id="path308"
       style="fill:none;stroke:#d1c8d9;stroke-opacity:0.37454811" />
    <path
       d="M978.0016811157069,548.1297006582176L931.603831243218,675.7329842655066L1100.7475272880079,626.7277351258874Z"
       fill="#848484"
       stroke="#848484"
       id="path310"
       style="fill:none;stroke:#d1c8d9;stroke-opacity:0.37454811" />
    <path
       d="M978.0016811157069,548.1297006582176L1100.7475272880079,626.7277351258874L1179.0713931781047,469.2099026995109Z"
       fill="#888888"
       stroke="#888888"
       id="path312"
       style="fill:none;stroke:#d1c8d9;stroke-opacity:0.37454811" />
    <path
       d="M1179.0713931781047,469.2099026995109L1100.7475272880079,626.7277351258874L1283.9134912865068,686.2943063827312Z"
       fill="#797979"
       stroke="#797979"
       id="path314"
       style="fill:none;stroke:#d1c8d9;stroke-opacity:0.37454811" />
    <path
       d="M1179.0713931781047,469.2099026995109L1283.9134912865068,686.2943063827312L1312.4165268800132,500.2011716215684Z"
       fill="#7a7a7a"
       stroke="#7a7a7a"
       id="path316"
       style="fill:none;stroke:#d1c8d9;stroke-opacity:0.37454811" />
    <path
       d="M1312.4165268800132,500.2011716215684L1283.9134912865068,686.2943063827312L1380.4280321893236,651.2404233510304Z"
       fill="#6c6c6c"
       stroke="#6c6c6c"
       id="path318"
       style="fill:none;stroke:#d1c8d9;stroke-opacity:0.37454811" />
    <path
       d="M1312.4165268800132,500.2011716215684L1380.4280321893236,651.2404233510304L1387.3851974369013,482.64302792224464Z"
       fill="#737373"
       stroke="#737373"
       id="path320"
       style="fill:none;stroke:#d1c8d9;stroke-opacity:0.37454811" />
    <path
       d="M1387.3851974369013,482.64302792224464L1380.4280321893236,651.2404233510304L1518.8460444057505,685.3316908642485Z"
       fill="#636363"
       stroke="#636363"
       id="path322"
       style="fill:none;stroke:#d1c8d9;stroke-opacity:0.37454811" />
    <path
       d="M1387.3851974369013,482.64302792224464L1518.8460444057505,685.3316908642485L1596.9880695951435,537.641375363002Z"
       fill="#636363"
       stroke="#636363"
       id="path324"
       style="fill:none;stroke:#d1c8d9;stroke-opacity:0.37454811" />
    <path
       d="M1596.9880695951435,537.641375363002L1518.8460444057505,685.3316908642485L1734.2708407843782,684.3684129076848Z"
       fill="#4d4d4d"
       stroke="#4d4d4d"
       id="path326"
       style="fill:none;stroke:#d1c8d9;stroke-opacity:0.37454811" />
    <path
       d="M1596.9880695951435,537.641375363002L1734.2708407843782,684.3684129076848L1713.1454717107288,478.1202554004986Z"
       fill="#525252"
       stroke="#525252"
       id="path328"
       style="fill:none;stroke:#d1c8d9;stroke-opacity:0.37454811" />
    <path
       d="M1713.1454717107288,478.1202554004986L1734.2708407843782,684.3684129076848L1850.3215243563257,564.5531863604185Z"
       fill="#494949"
       stroke="#494949"
       id="path330"
       style="fill:none;stroke:#d1c8d9;stroke-opacity:0.37454811" />
    <path
       d="M1850.3215243563257,564.5531863604185L1734.2708407843782,684.3684129076848L1849.757142792027,642.9212726212725Z"
       fill="#3c3c3c"
       stroke="#3c3c3c"
       id="path332"
       style="fill:none;stroke:#d1c8d9;stroke-opacity:0.37454811" />
    <path
       d="M1850.3215243563257,564.5531863604185L1849.757142792027,642.9212726212725L2002.711056431793,648.716994126074Z"
       fill="#393939"
       stroke="#393939"
       id="path334"
       style="fill:none;stroke:#d1c8d9;stroke-opacity:0.37454811" />
    <path
       d="M1850.3215243563257,564.5531863604185L2002.711056431793,648.716994126074L1971.7931257412688,485.3431669619394Z"
       fill="#414141"
       stroke="#414141"
       id="path336"
       style="fill:none;stroke:#d1c8d9;stroke-opacity:0.37454811" />
    <path
       d="M1971.7931257412688,485.3431669619394L2002.711056431793,648.716994126074L2120.389837341119,526.5235192692498Z"
       fill="#434343"
       stroke="#434343"
       id="path338"
       style="fill:none;stroke:#d1c8d9;stroke-opacity:0.37454811" />
    <path
       d="M2120.389837341119,526.5235192692498L2002.711056431793,648.716994126074L2194.4843678876946,628.7260407841479Z"
       fill="#3c3c3c"
       stroke="#3c3c3c"
       id="path340"
       style="fill:none;stroke:#d1c8d9;stroke-opacity:0.37454811" />
    <path
       d="M-57.16759634843723,717.9598086349099L-56.96028267517684,822.944962254477L83.83793404622608,727.6778502524322Z"
       fill="#9d9d9d"
       stroke="#9d9d9d"
       id="path342"
       style="fill:none;stroke:#d1c8d9;stroke-opacity:0.37454811" />
    <path
       d="M83.83793404622608,727.6778502524322L-56.96028267517684,822.944962254477L132.13751701400645,881.18259058497Z"
       fill="#909090"
       stroke="#909090"
       id="path344"
       style="fill:none;stroke:#d1c8d9;stroke-opacity:0.37454811" />
    <path
       d="M83.83793404622608,727.6778502524322L132.13751701400645,881.18259058497L276.40111170816624,792.4164569334786Z"
       fill="#8d8d8d"
       stroke="#8d8d8d"
       id="path346"
       style="fill:none;stroke:#d1c8d9;stroke-opacity:0.37454811" />
    <path
       d="M83.83793404622608,727.6778502524322L276.40111170816624,792.4164569334786L165.73728671942126,666.8011828313599Z"
       fill="#9a9a9a"
       stroke="#9a9a9a"
       id="path348"
       style="fill:none;stroke:#d1c8d9;stroke-opacity:0.37454811" />
    <path
       d="M165.73728671942126,666.8011828313599L276.40111170816624,792.4164569334786L372.66676352144884,728.7517071559673Z"
       fill="#969696"
       stroke="#969696"
       id="path350"
       style="fill:none;stroke:#d1c8d9;stroke-opacity:0.37454811" />
    <path
       d="M372.66676352144884,728.7517071559673L276.40111170816624,792.4164569334786L336.79242194006787,789.825972277816Z"
       fill="#8b8b8b"
       stroke="#8b8b8b"
       id="path352"
       style="fill:none;stroke:#d1c8d9;stroke-opacity:0.37454811" />
    <path
       d="M372.66676352144884,728.7517071559673L336.79242194006787,789.825972277816L558.8706895858015,863.428934575655Z"
       fill="#838383"
       stroke="#838383"
       id="path354"
       style="fill:none;stroke:#d1c8d9;stroke-opacity:0.37454811" />
    <path
       d="M372.66676352144884,728.7517071559673L558.8706895858015,863.428934575655L542.4315340426363,645.4036083285639Z"
       fill="#898989"
       stroke="#898989"
       id="path356"
       style="fill:none;stroke:#d1c8d9;stroke-opacity:0.37454811" />
    <path
       d="M542.4315340426363,645.4036083285639L558.8706895858015,863.428934575655L626.909038269223,765.9690805972368Z"
       fill="#838383"
       stroke="#838383"
       id="path358"
       style="fill:none;stroke:#d1c8d9;stroke-opacity:0.37454811" />
    <path
       d="M542.4315340426363,645.4036083285639L626.909038269223,765.9690805972368L622.4206764167042,694.7269363409931Z"
       fill="#8d8d8d"
       stroke="#8d8d8d"
       id="path360"
       style="fill:none;stroke:#d1c8d9;stroke-opacity:0.37454811" />
    <path
       d="M622.4206764167042,694.7269363409931L626.909038269223,765.9690805972368L769.1696029995716,786.677089091171Z"
       fill="#808080"
       stroke="#808080"
       id="path362"
       style="fill:none;stroke:#d1c8d9;stroke-opacity:0.37454811" />
    <path
       d="M622.4206764167042,694.7269363409931L769.1696029995716,786.677089091171L870.2455597713204,722.3115352071144Z"
       fill="#7f7f7f"
       stroke="#7f7f7f"
       id="path364"
       style="fill:none;stroke:#d1c8d9;stroke-opacity:0.37454811" />
    <path
       d="M870.2455597713204,722.3115352071144L769.1696029995716,786.677089091171L1006.7628589610799,856.5867381702327Z"
       fill="#6d6d6d"
       stroke="#6d6d6d"
       id="path366"
       style="fill:none;stroke:#d1c8d9;stroke-opacity:0.37454811" />
    <path
       d="M870.2455597713204,722.3115352071144L1006.7628589610799,856.5867381702327L931.603831243218,675.7329842655066Z"
       fill="#707070"
       stroke="#707070"
       id="path368"
       style="fill:none;stroke:#d1c8d9;stroke-opacity:0.37454811" />
    <path
       d="M931.603831243218,675.7329842655066L1006.7628589610799,856.5867381702327L1100.7475272880079,626.7277351258874Z"
       fill="#727272"
       stroke="#727272"
       id="path370"
       style="fill:none;stroke:#d1c8d9;stroke-opacity:0.37454811" />
    <path
       d="M1100.7475272880079,626.7277351258874L1006.7628589610799,856.5867381702327L1151.998949632291,882.993440672985Z"
       fill="#606060"
       stroke="#606060"
       id="path372"
       style="fill:none;stroke:#d1c8d9;stroke-opacity:0.37454811" />
    <path
       d="M1100.7475272880079,626.7277351258874L1151.998949632291,882.993440672985L1283.9134912865068,686.2943063827312Z"
       fill="#636363"
       stroke="#636363"
       id="path374"
       style="fill:none;stroke:#d1c8d9;stroke-opacity:0.37454811" />
    <path
       d="M1283.9134912865068,686.2943063827312L1151.998949632291,882.993440672985L1327.171748573535,854.3218388233914Z"
       fill="#4f4f4f"
       stroke="#4f4f4f"
       id="path376"
       style="fill:none;stroke:#d1c8d9;stroke-opacity:0.37454811" />
    <path
       d="M1283.9134912865068,686.2943063827312L1327.171748573535,854.3218388233914L1393.3561008387717,812.6594248060517Z"
       fill="#4d4d4d"
       stroke="#4d4d4d"
       id="path378"
       style="fill:none;stroke:#d1c8d9;stroke-opacity:0.37454811" />
    <path
       d="M1283.9134912865068,686.2943063827312L1393.3561008387717,812.6594248060517L1380.4280321893236,651.2404233510304Z"
       fill="#585858"
       stroke="#585858"
       id="path380"
       style="fill:none;stroke:#d1c8d9;stroke-opacity:0.37454811" />
    <path
       d="M1380.4280321893236,651.2404233510304L1393.3561008387717,812.6594248060517L1518.8460444057505,685.3316908642485Z"
       fill="#515151"
       stroke="#515151"
       id="path382"
       style="fill:none;stroke:#d1c8d9;stroke-opacity:0.37454811" />
    <path
       d="M1518.8460444057505,685.3316908642485L1393.3561008387717,812.6594248060517L1543.6258922145503,776.1092622804226Z"
       fill="#444444"
       stroke="#444444"
       id="path384"
       style="fill:none;stroke:#d1c8d9;stroke-opacity:0.37454811" />
    <path
       d="M1518.8460444057505,685.3316908642485L1543.6258922145503,776.1092622804226L1734.2708407843782,684.3684129076848Z"
       fill="#424242"
       stroke="#424242"
       id="path386"
       style="fill:none;stroke:#d1c8d9;stroke-opacity:0.37454811" />
    <path
       d="M1734.2708407843782,684.3684129076848L1543.6258922145503,776.1092622804226L1756.15949683059,819.1799002379624Z"
       fill="#323232"
       stroke="#323232"
       id="path388"
       style="fill:none;stroke:#d1c8d9;stroke-opacity:0.37454811" />
    <path
       d="M1734.2708407843782,684.3684129076848L1756.15949683059,819.1799002379624L1831.8716102981177,786.2065632501931Z"
       fill="#282828"
       stroke="#282828"
       id="path390"
       style="fill:none;stroke:#d1c8d9;stroke-opacity:0.37454811" />
    <path
       d="M1734.2708407843782,684.3684129076848L1831.8716102981177,786.2065632501931L1849.757142792027,642.9212726212725Z"
       fill="#303030"
       stroke="#303030"
       id="path392"
       style="fill:none;stroke:#d1c8d9;stroke-opacity:0.37454811" />
    <path
       d="M1849.757142792027,642.9212726212725L1831.8716102981177,786.2065632501931L2002.711056431793,648.716994126074Z"
       fill="#2d2d2d"
       stroke="#2d2d2d"
       id="path394"
       style="fill:none;stroke:#d1c8d9;stroke-opacity:0.37454811" />
    <path
       d="M2002.711056431793,648.716994126074L1831.8716102981177,786.2065632501931L1974.1856437526937,862.4152827453235Z"
       fill="#1f1f1f"
       stroke="#1f1f1f"
       id="path396"
       style="fill:none;stroke:#d1c8d9;stroke-opacity:0.37454811" />
    <path
       d="M2002.711056431793,648.716994126074L1974.1856437526937,862.4152827453235L2212.389222653648,783.3655363140241Z"
       fill="#1f1f1f"
       stroke="#1f1f1f"
       id="path398"
       style="fill:none;stroke:#d1c8d9;stroke-opacity:0.37454811" />
    <path
       d="M2002.711056431793,648.716994126074L2212.389222653648,783.3655363140241L2194.4843678876946,628.7260407841479Z"
       fill="#2e2e2e"
       stroke="#2e2e2e"
       id="path400"
       style="fill:none;stroke:#d1c8d9;stroke-opacity:0.37454811" />
    <path
       d="M-56.96028267517684,822.944962254477L-52.85377904337733,1183.1075818523445L-24.389397898756926,1020.1914316685544Z"
       fill="#7e7e7e"
       stroke="#7e7e7e"
       id="path402"
       style="fill:none;stroke:#d1c8d9;stroke-opacity:0.37454811" />
    <path
       d="M-56.96028267517684,822.944962254477L-24.389397898756926,1020.1914316685544L67.82438616268297,977.6828036084803Z"
       fill="#7c7c7c"
       stroke="#7c7c7c"
       id="path404"
       style="fill:none;stroke:#d1c8d9;stroke-opacity:0.37454811" />
    <path
       d="M-56.96028267517684,822.944962254477L67.82438616268297,977.6828036084803L132.13751701400645,881.18259058497Z"
       fill="#818181"
       stroke="#818181"
       id="path406"
       style="fill:none;stroke:#d1c8d9;stroke-opacity:0.37454811" />
    <path
       d="M132.13751701400645,881.18259058497L67.82438616268297,977.6828036084803L173.0475073513016,928.5604900550446Z"
       fill="#777777"
       stroke="#777777"
       id="path408"
       style="fill:none;stroke:#d1c8d9;stroke-opacity:0.37454811" />
    <path
       d="M132.13751701400645,881.18259058497L173.0475073513016,928.5604900550446L276.40111170816624,792.4164569334786Z"
       fill="#7f7f7f"
       stroke="#7f7f7f"
       id="path410"
       style="fill:none;stroke:#d1c8d9;stroke-opacity:0.37454811" />
    <path
       d="M276.40111170816624,792.4164569334786L173.0475073513016,928.5604900550446L385.9860252272981,998.9249805241334Z"
       fill="#747474"
       stroke="#747474"
       id="path412"
       style="fill:none;stroke:#d1c8d9;stroke-opacity:0.37454811" />
    <path
       d="M276.40111170816624,792.4164569334786L385.9860252272981,998.9249805241334L336.79242194006787,789.825972277816Z"
       fill="#7a7a7a"
       stroke="#7a7a7a"
       id="path414"
       style="fill:none;stroke:#d1c8d9;stroke-opacity:0.37454811" />
    <path
       d="M336.79242194006787,789.825972277816L385.9860252272981,998.9249805241334L558.8706895858015,863.428934575655Z"
       fill="#727272"
       stroke="#727272"
       id="path416"
       style="fill:none;stroke:#d1c8d9;stroke-opacity:0.37454811" />
    <path
       d="M558.8706895858015,863.428934575655L385.9860252272981,998.9249805241334L577.9328452033142,990.2271097207064Z"
       fill="#656565"
       stroke="#656565"
       id="path418"
       style="fill:none;stroke:#d1c8d9;stroke-opacity:0.37454811" />
    <path
       d="M558.8706895858015,863.428934575655L577.9328452033142,990.2271097207064L718.1421571377296,1018.5086761981088Z"
       fill="#616161"
       stroke="#616161"
       id="path420"
       style="fill:none;stroke:#d1c8d9;stroke-opacity:0.37454811" />
    <path
       d="M558.8706895858015,863.428934575655L718.1421571377296,1018.5086761981088L769.1696029995716,786.677089091171Z"
       fill="#666666"
       stroke="#666666"
       id="path422"
       style="fill:none;stroke:#d1c8d9;stroke-opacity:0.37454811" />
    <path
       d="M558.8706895858015,863.428934575655L769.1696029995716,786.677089091171L626.909038269223,765.9690805972368Z"
       fill="#777777"
       stroke="#777777"
       id="path424"
       style="fill:none;stroke:#d1c8d9;stroke-opacity:0.37454811" />
    <path
       d="M769.1696029995716,786.677089091171L718.1421571377296,1018.5086761981088L809.8991246769265,957.272780674582Z"
       fill="#5b5b5b"
       stroke="#5b5b5b"
       id="path426"
       style="fill:none;stroke:#d1c8d9;stroke-opacity:0.37454811" />
    <path
       d="M769.1696029995716,786.677089091171L809.8991246769265,957.272780674582L1006.7628589610799,856.5867381702327Z"
       fill="#606060"
       stroke="#606060"
       id="path428"
       style="fill:none;stroke:#d1c8d9;stroke-opacity:0.37454811" />
    <path
       d="M1006.7628589610799,856.5867381702327L809.8991246769265,957.272780674582L992.7844778907759,1019.688250553711Z"
       fill="#4f4f4f"
       stroke="#4f4f4f"
       id="path430"
       style="fill:none;stroke:#d1c8d9;stroke-opacity:0.37454811" />
    <path
       d="M1006.7628589610799,856.5867381702327L992.7844778907759,1019.688250553711L1108.0501108882193,989.2165236991727Z"
       fill="#494949"
       stroke="#494949"
       id="path432"
       style="fill:none;stroke:#d1c8d9;stroke-opacity:0.37454811" />
    <path
       d="M1006.7628589610799,856.5867381702327L1108.0501108882193,989.2165236991727L1151.998949632291,882.993440672985Z"
       fill="#494949"
       stroke="#494949"
       id="path434"
       style="fill:none;stroke:#d1c8d9;stroke-opacity:0.37454811" />
    <path
       d="M1151.998949632291,882.993440672985L1108.0501108882193,989.2165236991727L1231.9229813552236,981.123516339919Z"
       fill="#3f3f3f"
       stroke="#3f3f3f"
       id="path436"
       style="fill:none;stroke:#d1c8d9;stroke-opacity:0.37454811" />
    <path
       d="M1151.998949632291,882.993440672985L1231.9229813552236,981.123516339919L1327.171748573535,854.3218388233914Z"
       fill="#3e3e3e"
       stroke="#3e3e3e"
       id="path438"
       style="fill:none;stroke:#d1c8d9;stroke-opacity:0.37454811" />
    <path
       d="M1327.171748573535,854.3218388233914L1231.9229813552236,981.123516339919L1483.90091897052,985.2139447823865Z"
       fill="#303030"
       stroke="#303030"
       id="path440"
       style="fill:none;stroke:#d1c8d9;stroke-opacity:0.37454811" />
    <path
       d="M1327.171748573535,854.3218388233914L1483.90091897052,985.2139447823865L1393.3561008387717,812.6594248060517Z"
       fill="#343434"
       stroke="#343434"
       id="path442"
       style="fill:none;stroke:#d1c8d9;stroke-opacity:0.37454811" />
    <path
       d="M1393.3561008387717,812.6594248060517L1483.90091897052,985.2139447823865L1532.3375044543923,919.9929907354007Z"
       fill="#2a2a2a"
       stroke="#2a2a2a"
       id="path444"
       style="fill:none;stroke:#d1c8d9;stroke-opacity:0.37454811" />
    <path
       d="M1393.3561008387717,812.6594248060517L1532.3375044543923,919.9929907354007L1543.6258922145503,776.1092622804226Z"
       fill="#353535"
       stroke="#353535"
       id="path446"
       style="fill:none;stroke:#d1c8d9;stroke-opacity:0.37454811" />
    <path
       d="M1543.6258922145503,776.1092622804226L1532.3375044543923,919.9929907354007L1694.489769623841,956.356475520211Z"
       fill="#232323"
       stroke="#232323"
       id="path448"
       style="fill:none;stroke:#d1c8d9;stroke-opacity:0.37454811" />
    <path
       d="M1543.6258922145503,776.1092622804226L1694.489769623841,956.356475520211L1756.15949683059,819.1799002379624Z"
       fill="#222222"
       stroke="#222222"
       id="path450"
       style="fill:none;stroke:#d1c8d9;stroke-opacity:0.37454811" />
    <path
       d="M1756.15949683059,819.1799002379624L1694.489769623841,956.356475520211L1908.630838563038,931.4312495234557Z"
       fill="#0d0d0d"
       stroke="#0d0d0d"
       id="path452"
       style="fill:none;stroke:#d1c8d9;stroke-opacity:0.37454811" />
    <path
       d="M1756.15949683059,819.1799002379624L1908.630838563038,931.4312495234557L1831.8716102981177,786.2065632501931Z"
       fill="#131313"
       stroke="#131313"
       id="path454"
       style="fill:none;stroke:#d1c8d9;stroke-opacity:0.37454811" />
    <path
       d="M1831.8716102981177,786.2065632501931L1908.630838563038,931.4312495234557L1974.1856437526937,862.4152827453235Z"
       fill="#0e0e0e"
       stroke="#0e0e0e"
       id="path456"
       style="fill:none;stroke:#d1c8d9;stroke-opacity:0.37454811" />
    <path
       d="M1974.1856437526937,862.4152827453235L1908.630838563038,931.4312495234557L2007.4860866440915,982.6153227481582Z"
       fill="#020202"
       stroke="#020202"
       id="path458"
       style="fill:none;stroke:#d1c8d9;stroke-opacity:0.37454811" />
    <path
       d="M1974.1856437526937,862.4152827453235L2007.4860866440915,982.6153227481582L2173.125456054229,952.6761729127952Z"
       fill="#000000"
       stroke="#000000"
       id="path460"
       style="fill:none;stroke:#d1c8d9;stroke-opacity:0.37454811" />
    <path
       d="M1974.1856437526937,862.4152827453235L2173.125456054229,952.6761729127952L2212.389222653648,783.3655363140241Z"
       fill="#0d0d0d"
       stroke="#0d0d0d"
       id="path462"
       style="fill:none;stroke:#d1c8d9;stroke-opacity:0.37454811" />
    <path
       d="M2212.389222653648,783.3655363140241L2173.125456054229,952.6761729127952L2178.7017024943366,1076.2328656696147Z"
       fill="#000000"
       stroke="#000000"
       id="path464"
       style="fill:none;stroke:#d1c8d9;stroke-opacity:0.37454811" />
    <path
       d="M-24.389397898756926,1020.1914316685544L-52.85377904337733,1183.1075818523445L44.11423859286443,1104.1547889191313Z"
       fill="#7c7c7c"
       stroke="#7c7c7c"
       id="path466"
       style="fill:none;stroke:#d1c8d9;stroke-opacity:0.37454811" />
    <path
       d="M-24.389397898756926,1020.1914316685544L44.11423859286443,1104.1547889191313L67.82438616268297,977.6828036084803Z"
       fill="#7a7a7a"
       stroke="#7a7a7a"
       id="path468"
       style="fill:none;stroke:#d1c8d9;stroke-opacity:0.37454811" />
    <path
       d="M67.82438616268297,977.6828036084803L44.11423859286443,1104.1547889191313L211.25151808106648,1149.8511219665484Z"
       fill="#777777"
       stroke="#777777"
       id="path470"
       style="fill:none;stroke:#d1c8d9;stroke-opacity:0.37454811" />
    <path
       d="M67.82438616268297,977.6828036084803L211.25151808106648,1149.8511219665484L173.0475073513016,928.5604900550446Z"
       fill="#757575"
       stroke="#757575"
       id="path472"
       style="fill:none;stroke:#d1c8d9;stroke-opacity:0.37454811" />
    <path
       d="M173.0475073513016,928.5604900550446L211.25151808106648,1149.8511219665484L385.9860252272981,998.9249805241334Z"
       fill="#707070"
       stroke="#707070"
       id="path474"
       style="fill:none;stroke:#d1c8d9;stroke-opacity:0.37454811" />
    <path
       d="M385.9860252272981,998.9249805241334L211.25151808106648,1149.8511219665484L409.6152880240364,1101.0463124953658Z"
       fill="#6d6d6d"
       stroke="#6d6d6d"
       id="path476"
       style="fill:none;stroke:#d1c8d9;stroke-opacity:0.37454811" />
    <path
       d="M385.9860252272981,998.9249805241334L409.6152880240364,1101.0463124953658L528.185602305788,1106.9549234315923Z"
       fill="#686868"
       stroke="#686868"
       id="path478"
       style="fill:none;stroke:#d1c8d9;stroke-opacity:0.37454811" />
    <path
       d="M385.9860252272981,998.9249805241334L528.185602305788,1106.9549234315923L577.9328452033142,990.2271097207064Z"
       fill="#666666"
       stroke="#666666"
       id="path480"
       style="fill:none;stroke:#d1c8d9;stroke-opacity:0.37454811" />
    <path
       d="M577.9328452033142,990.2271097207064L528.185602305788,1106.9549234315923L689.1163972757065,1129.6122856671639Z"
       fill="#626262"
       stroke="#626262"
       id="path482"
       style="fill:none;stroke:#d1c8d9;stroke-opacity:0.37454811" />
    <path
       d="M577.9328452033142,990.2271097207064L689.1163972757065,1129.6122856671639L718.1421571377296,1018.5086761981088Z"
       fill="#5f5f5f"
       stroke="#5f5f5f"
       id="path484"
       style="fill:none;stroke:#d1c8d9;stroke-opacity:0.37454811" />
    <path
       d="M718.1421571377296,1018.5086761981088L689.1163972757065,1129.6122856671639L779.960461858176,1148.7134769946892Z"
       fill="#5b5b5b"
       stroke="#5b5b5b"
       id="path486"
       style="fill:none;stroke:#d1c8d9;stroke-opacity:0.37454811" />
    <path
       d="M718.1421571377296,1018.5086761981088L779.960461858176,1148.7134769946892L809.8991246769265,957.272780674582Z"
       fill="#595959"
       stroke="#595959"
       id="path488"
       style="fill:none;stroke:#d1c8d9;stroke-opacity:0.37454811" />
    <path
       d="M809.8991246769265,957.272780674582L779.960461858176,1148.7134769946892L973.4038151940307,1121.9569319180257Z"
       fill="#545454"
       stroke="#545454"
       id="path490"
       style="fill:none;stroke:#d1c8d9;stroke-opacity:0.37454811" />
    <path
       d="M809.8991246769265,957.272780674582L973.4038151940307,1121.9569319180257L992.7844778907759,1019.688250553711Z"
       fill="#505050"
       stroke="#505050"
       id="path492"
       style="fill:none;stroke:#d1c8d9;stroke-opacity:0.37454811" />
    <path
       d="M992.7844778907759,1019.688250553711L973.4038151940307,1121.9569319180257L1105.6783206564876,1183.5523207631318Z"
       fill="#494949"
       stroke="#494949"
       id="path494"
       style="fill:none;stroke:#d1c8d9;stroke-opacity:0.37454811" />
    <path
       d="M992.7844778907759,1019.688250553711L1105.6783206564876,1183.5523207631318L1108.0501108882193,989.2165236991727Z"
       fill="#464646"
       stroke="#464646"
       id="path496"
       style="fill:none;stroke:#d1c8d9;stroke-opacity:0.37454811" />
    <path
       d="M1108.0501108882193,989.2165236991727L1105.6783206564876,1183.5523207631318L1231.9229813552236,981.123516339919Z"
       fill="#404040"
       stroke="#404040"
       id="path498"
       style="fill:none;stroke:#d1c8d9;stroke-opacity:0.37454811" />
    <path
       d="M1231.9229813552236,981.123516339919L1105.6783206564876,1183.5523207631318L1325.726376166196,1172.5840885363443Z"
       fill="#3a3a3a"
       stroke="#3a3a3a"
       id="path500"
       style="fill:none;stroke:#d1c8d9;stroke-opacity:0.37454811" />
    <path
       d="M1231.9229813552236,981.123516339919L1325.726376166196,1172.5840885363443L1483.90091897052,985.2139447823865Z"
       fill="#303030"
       stroke="#303030"
       id="path502"
       style="fill:none;stroke:#d1c8d9;stroke-opacity:0.37454811" />
    <path
       d="M1483.90091897052,985.2139447823865L1325.726376166196,1172.5840885363443L1387.7380965733869,1173.1057339923314Z"
       fill="#2c2c2c"
       stroke="#2c2c2c"
       id="path504"
       style="fill:none;stroke:#d1c8d9;stroke-opacity:0.37454811" />
    <path
       d="M1483.90091897052,985.2139447823865L1387.7380965733869,1173.1057339923314L1589.4805643967961,1086.977043826037Z"
       fill="#232323"
       stroke="#232323"
       id="path506"
       style="fill:none;stroke:#d1c8d9;stroke-opacity:0.37454811" />
    <path
       d="M1483.90091897052,985.2139447823865L1589.4805643967961,1086.977043826037L1532.3375044543923,919.9929907354007Z"
       fill="#1f1f1f"
       stroke="#1f1f1f"
       id="path508"
       style="fill:none;stroke:#d1c8d9;stroke-opacity:0.37454811" />
    <path
       d="M1532.3375044543923,919.9929907354007L1589.4805643967961,1086.977043826037L1694.489769623841,956.356475520211Z"
       fill="#181818"
       stroke="#181818"
       id="path510"
       style="fill:none;stroke:#d1c8d9;stroke-opacity:0.37454811" />
    <path
       d="M1694.489769623841,956.356475520211L1589.4805643967961,1086.977043826037L1710.7559688107165,1121.5935476982572Z"
       fill="#131313"
       stroke="#131313"
       id="path512"
       style="fill:none;stroke:#d1c8d9;stroke-opacity:0.37454811" />
    <path
       d="M1694.489769623841,956.356475520211L1710.7559688107165,1121.5935476982572L1908.630838563038,931.4312495234557Z"
       fill="#090909"
       stroke="#090909"
       id="path514"
       style="fill:none;stroke:#d1c8d9;stroke-opacity:0.37454811" />
    <path
       d="M1908.630838563038,931.4312495234557L1710.7559688107165,1121.5935476982572L1833.8077362845113,1179.8432828120683Z"
       fill="#050505"
       stroke="#050505"
       id="path516"
       style="fill:none;stroke:#d1c8d9;stroke-opacity:0.37454811" />
    <path
       d="M1908.630838563038,931.4312495234557L1833.8077362845113,1179.8432828120683L2007.4860866440915,982.6153227481582Z"
       fill="#000000"
       stroke="#000000"
       id="path518"
       style="fill:none;stroke:#d1c8d9;stroke-opacity:0.37454811" />
    <path
       d="M2007.4860866440915,982.6153227481582L1833.8077362845113,1179.8432828120683L2068.2968042403777,1109.991789790194Z"
       fill="#000000"
       stroke="#000000"
       id="path520"
       style="fill:none;stroke:#d1c8d9;stroke-opacity:0.37454811" />
    <path
       d="M2007.4860866440915,982.6153227481582L2068.2968042403777,1109.991789790194L2173.125456054229,952.6761729127952Z"
       fill="#000000"
       stroke="#000000"
       id="path522"
       style="fill:none;stroke:#d1c8d9;stroke-opacity:0.37454811" />
    <path
       d="M2173.125456054229,952.6761729127952L2068.2968042403777,1109.991789790194L2178.7017024943366,1076.2328656696147Z"
       fill="#000000"
       stroke="#000000"
       id="path524"
       style="fill:none;stroke:#d1c8d9;stroke-opacity:0.37454811" />
    <path
       d="M-52.85377904337733,1183.1075818523445L1105.6783206564876,1183.5523207631318L779.960461858176,1148.7134769946892Z"
       fill="#616161"
       stroke="#616161"
       id="path526"
       style="fill:none;stroke:#d1c8d9;stroke-opacity:0.37454811" />
    <path
       d="M-52.85377904337733,1183.1075818523445L779.960461858176,1148.7134769946892L211.25151808106648,1149.8511219665484Z"
       fill="#6e6e6e"
       stroke="#6e6e6e"
       id="path528"
       style="fill:none;stroke:#d1c8d9;stroke-opacity:0.37454811" />
    <path
       d="M-52.85377904337733,1183.1075818523445L211.25151808106648,1149.8511219665484L44.11423859286443,1104.1547889191313Z"
       fill="#797979"
       stroke="#797979"
       id="path530"
       style="fill:none;stroke:#d1c8d9;stroke-opacity:0.37454811" />
    <path
       d="M211.25151808106648,1149.8511219665484L779.960461858176,1148.7134769946892L689.1163972757065,1129.6122856671639Z"
       fill="#636363"
       stroke="#636363"
       id="path532"
       style="fill:none;stroke:#d1c8d9;stroke-opacity:0.37454811" />
    <path
       d="M211.25151808106648,1149.8511219665484L689.1163972757065,1129.6122856671639L528.185602305788,1106.9549234315923Z"
       fill="#676767"
       stroke="#676767"
       id="path534"
       style="fill:none;stroke:#d1c8d9;stroke-opacity:0.37454811" />
    <path
       d="M211.25151808106648,1149.8511219665484L528.185602305788,1106.9549234315923L409.6152880240364,1101.0463124953658Z"
       fill="#6b6b6b"
       stroke="#6b6b6b"
       id="path536"
       style="fill:none;stroke:#d1c8d9;stroke-opacity:0.37454811" />
    <path
       d="M779.960461858176,1148.7134769946892L1105.6783206564876,1183.5523207631318L973.4038151940307,1121.9569319180257Z"
       fill="#4e4e4e"
       stroke="#4e4e4e"
       id="path538"
       style="fill:none;stroke:#d1c8d9;stroke-opacity:0.37454811" />
    <path
       d="M1105.6783206564876,1183.5523207631318L1833.8077362845113,1179.8432828120683L1387.7380965733869,1173.1057339923314Z"
       fill="#282828"
       stroke="#282828"
       id="path540"
       style="fill:none;stroke:#d1c8d9;stroke-opacity:0.37454811" />
    <path
       d="M1105.6783206564876,1183.5523207631318L1387.7380965733869,1173.1057339923314L1325.726376166196,1172.5840885363443Z"
       fill="#363636"
       stroke="#363636"
       id="path542"
       style="fill:none;stroke:#d1c8d9;stroke-opacity:0.37454811" />
    <path
       d="M1387.7380965733869,1173.1057339923314L1833.8077362845113,1179.8432828120683L1710.7559688107165,1121.5935476982572Z"
       fill="#151515"
       stroke="#151515"
       id="path544"
       style="fill:none;stroke:#d1c8d9;stroke-opacity:0.37454811" />
    <path
       d="M1387.7380965733869,1173.1057339923314L1710.7559688107165,1121.5935476982572L1589.4805643967961,1086.977043826037Z"
       fill="#1c1c1c"
       stroke="#1c1c1c"
       id="path546"
       style="fill:none;stroke:#d1c8d9;stroke-opacity:0.37454811" />
  </g>
</svg>
